<svg width="21" height="28" viewBox="0 0 21 28" fill="none" xmlns="http://www.w3.org/2000/svg">
<path d="M10.2308 0C4.58949 0 0 4.54902 0 10.1405C0 17.0797 9.15554 27.2668 9.54534 27.6971C9.91148 28.1013 10.5507 28.1006 10.9162 27.6971C11.306 27.2668 20.4615 17.0797 20.4615 10.1405C20.4614 4.54902 15.872 0 10.2308 0ZM10.2308 15.2425C7.3925 15.2425 5.08347 12.9537 5.08347 10.1405C5.08347 7.32726 7.39256 5.03858 10.2308 5.03858C13.069 5.03858 15.378 7.32731 15.378 10.1406C15.378 12.9538 13.069 15.2425 10.2308 15.2425Z" fill="url(#paint0_linear_223_590)"/>
<defs>
<linearGradient id="paint0_linear_223_590" x1="7.91819" y1="54.2309" x2="37.6574" y2="44.5518" gradientUnits="userSpaceOnUse">
<stop stop-color="#5D86D6"/>
<stop offset="1" stop-color="#986AD6"/>
</linearGradient>
</defs>
</svg>
