<svg width="85" height="76" viewBox="0 0 85 76" fill="none" xmlns="http://www.w3.org/2000/svg">
<path d="M83.7548 73.3713H82.3384V38.5149H83.7548C84.1763 38.5149 84.5691 38.3013 84.7989 37.9469C85.0286 37.5926 85.0638 37.146 84.8927 36.7599L79.5696 24.7537C79.3697 24.303 78.9238 24.0124 78.4317 24.0124H52.3312L43.7451 15.4053V9.1663H51.8156C52.5032 9.1663 53.0607 8.60747 53.0607 7.91817V1.24813C53.0607 0.558831 52.5032 0 51.8156 0H42.5C41.8123 0 41.2549 0.558831 41.2549 1.24813V15.4055L32.6685 24.0124H6.56827C6.0762 24.0124 5.63028 24.303 5.4304 24.7537L0.107282 36.7599C-0.0638797 37.146 -0.0285184 37.5926 0.201081 37.9469C0.43068 38.3013 0.823639 38.5149 1.24515 38.5149H2.66159V73.3715H1.24515C0.557516 73.3715 3.62282e-05 73.9303 3.62282e-05 74.6196C3.62282e-05 75.3089 0.557516 75.8678 1.24515 75.8678H83.7548C84.4424 75.8678 84.9999 75.3089 84.9999 74.6196C84.9999 73.9303 84.4424 73.3713 83.7548 73.3713ZM50.5705 6.67003H43.7451V2.49627H50.5705V6.67003ZM7.37743 26.5087H30.1783L20.6914 36.0187H3.16114L7.37743 26.5087ZM5.15183 38.5149H21.207C21.5372 38.5149 21.854 38.3835 22.0874 38.1493L42.5 17.6874L62.9124 38.1493C63.1458 38.3835 63.4626 38.5149 63.7928 38.5149H73.1084C73.796 38.5149 74.3535 37.9561 74.3535 37.2668C74.3535 36.5775 73.796 36.0187 73.1084 36.0187H64.3086L54.8216 26.5087H77.6225L81.839 36.0187H78.4317C77.744 36.0187 77.1866 36.5775 77.1866 37.2668C77.1866 37.9561 77.744 38.5149 78.4317 38.5149H79.8481V73.3715H54.3915V69.2836C54.3915 68.5943 53.834 68.0355 53.1464 68.0355H51.7299V57.2774C51.7299 56.5881 51.1724 56.0293 50.4848 56.0293H34.5153C33.8277 56.0293 33.2702 56.5881 33.2702 57.2774V68.0355H31.8537C31.1661 68.0355 30.6086 68.5943 30.6086 69.2836V73.3715H5.15183V38.5149ZM49.2397 58.5254V68.0353H43.7451V58.5254H49.2397ZM41.2549 68.0353H35.7602V58.5254H41.2549V68.0353ZM51.9013 70.5316V73.3713H33.0987V70.5316H51.9013Z" fill="url(#paint0_linear_213_88)"/>
<path d="M42.5 49.1871C47.5893 49.1871 51.7299 45.0367 51.7299 39.9348C51.7299 34.8329 47.5895 30.6825 42.5 30.6825C37.4104 30.6825 33.27 34.8331 33.27 39.9348C33.27 45.0365 37.4106 49.1871 42.5 49.1871ZM42.5 33.1787C46.2162 33.1787 49.2397 36.2095 49.2397 39.9348C49.2397 43.6601 46.2162 46.6909 42.5 46.6909C38.7837 46.6909 35.7602 43.6602 35.7602 39.9348C35.7602 36.2094 38.7837 33.1787 42.5 33.1787Z" fill="url(#paint1_linear_213_88)"/>
<path d="M42.5 43.8511C43.1876 43.8511 43.7451 43.2923 43.7451 42.603V40.7063L45.7183 39.7173C46.3334 39.4091 46.5828 38.6594 46.2752 38.0428C45.9677 37.4262 45.2198 37.1761 44.6047 37.4846L41.9432 38.8186C41.5213 39.03 41.2549 39.4622 41.2549 39.935V42.603C41.2549 43.2923 41.8123 43.8511 42.5 43.8511Z" fill="url(#paint2_linear_213_88)"/>
<path d="M27.8612 56.0291H9.22999C8.54236 56.0291 7.98488 56.5879 7.98488 57.2772V65.2814C7.98488 65.9707 8.54236 66.5296 9.22999 66.5296H11.8921C12.5797 66.5296 13.1372 65.9707 13.1372 65.2814C13.1372 64.5921 12.5797 64.0333 11.8921 64.0333H10.4751V58.5254H17.3005V64.0333H17.215C16.5274 64.0333 15.9699 64.5921 15.9699 65.2814C15.9699 65.9707 16.5274 66.5296 17.215 66.5296H27.8612C28.5489 66.5296 29.1064 65.9707 29.1064 65.2814V57.2772C29.1064 56.5879 28.5489 56.0291 27.8612 56.0291ZM26.6161 64.0333H19.7907V58.5254H26.6161V64.0333Z" fill="url(#paint3_linear_213_88)"/>
<path d="M27.8612 42.6889H9.22999C8.54236 42.6889 7.98488 43.2477 7.98488 43.937V51.9412C7.98488 52.6305 8.54236 53.1893 9.22999 53.1893H27.8612C28.5489 53.1893 29.1064 52.6305 29.1064 51.9412V43.937C29.1064 43.2477 28.5489 42.6889 27.8612 42.6889ZM10.4751 45.1851H17.3005V50.6931H10.4751V45.1851ZM26.6161 50.6929H19.7907V45.185H26.6161V50.6929Z" fill="url(#paint4_linear_213_88)"/>
<path d="M57.1387 66.5296H75.77C76.4576 66.5296 77.0151 65.9707 77.0151 65.2814V57.2772C77.0151 56.5879 76.4576 56.0291 75.77 56.0291H57.1387C56.4511 56.0291 55.8936 56.5879 55.8936 57.2772V65.2814C55.8936 65.9707 56.4511 66.5296 57.1387 66.5296ZM74.5248 64.0333H67.6995V58.5254H74.5248V64.0333ZM58.3838 58.5254H65.2092V64.0333H58.3838V58.5254Z" fill="url(#paint5_linear_213_88)"/>
<path d="M57.1387 53.1892H75.77C76.4576 53.1892 77.0151 52.6303 77.0151 51.941V43.9368C77.0151 43.2475 76.4576 42.6887 75.77 42.6887H57.1387C56.4511 42.6887 55.8936 43.2475 55.8936 43.9368V51.941C55.8936 52.6305 56.4511 53.1892 57.1387 53.1892ZM74.5248 50.6929H67.6995V45.185H74.5248V50.6929ZM58.3838 45.1851H65.2092V50.6931H58.3838V45.1851Z" fill="url(#paint6_linear_213_88)"/>
<defs>
<linearGradient id="paint0_linear_213_88" x1="32.8932" y1="146.942" x2="142.284" y2="92.3577" gradientUnits="userSpaceOnUse">
<stop stop-color="#5D86D6"/>
<stop offset="1" stop-color="#986AD6"/>
</linearGradient>
<linearGradient id="paint1_linear_213_88" x1="32.8932" y1="146.942" x2="142.284" y2="92.3577" gradientUnits="userSpaceOnUse">
<stop stop-color="#5D86D6"/>
<stop offset="1" stop-color="#986AD6"/>
</linearGradient>
<linearGradient id="paint2_linear_213_88" x1="32.8932" y1="146.942" x2="142.284" y2="92.3577" gradientUnits="userSpaceOnUse">
<stop stop-color="#5D86D6"/>
<stop offset="1" stop-color="#986AD6"/>
</linearGradient>
<linearGradient id="paint3_linear_213_88" x1="32.8932" y1="146.942" x2="142.284" y2="92.3577" gradientUnits="userSpaceOnUse">
<stop stop-color="#5D86D6"/>
<stop offset="1" stop-color="#986AD6"/>
</linearGradient>
<linearGradient id="paint4_linear_213_88" x1="32.8932" y1="146.942" x2="142.284" y2="92.3577" gradientUnits="userSpaceOnUse">
<stop stop-color="#5D86D6"/>
<stop offset="1" stop-color="#986AD6"/>
</linearGradient>
<linearGradient id="paint5_linear_213_88" x1="32.8932" y1="146.942" x2="142.284" y2="92.3577" gradientUnits="userSpaceOnUse">
<stop stop-color="#5D86D6"/>
<stop offset="1" stop-color="#986AD6"/>
</linearGradient>
<linearGradient id="paint6_linear_213_88" x1="32.8932" y1="146.942" x2="142.284" y2="92.3577" gradientUnits="userSpaceOnUse">
<stop stop-color="#5D86D6"/>
<stop offset="1" stop-color="#986AD6"/>
</linearGradient>
</defs>
</svg>
