<svg width="87" height="85" viewBox="0 0 87 85" fill="none" xmlns="http://www.w3.org/2000/svg">
<path fill-rule="evenodd" clip-rule="evenodd" d="M52.6543 83.6426V76.5534C52.6543 75.8033 53.2697 75.1963 54.0279 75.1963H85.6262C86.3846 75.1963 86.9999 74.5874 86.9999 73.8391C86.9999 73.0899 86.3845 72.482 85.6262 72.482C85.6262 72.482 62.1729 72.482 54.0279 72.482C51.7521 72.482 49.9067 74.3042 49.9067 76.5537V83.6429C49.9067 84.3921 50.5222 85 51.2804 85C52.0386 85 52.6543 84.3917 52.6543 83.6426ZM2.02298 66.5534L31.4492 50.9563C31.875 50.731 32.3897 50.7427 32.8037 50.9879C33.2186 51.2322 33.4722 51.6747 33.4722 52.1525V83.6426C33.4722 84.3918 34.0877 84.9997 34.8459 84.9997C35.6041 84.9997 36.2195 84.3917 36.2195 83.6426C36.2195 83.6426 36.2195 61.8339 36.2195 52.1525C36.2195 50.7201 35.4584 49.3937 34.2148 48.6581C32.9702 47.9233 31.4271 47.8871 30.1506 48.564L0.724497 64.162C0.0559355 64.5158 -0.194883 65.3391 0.163101 65.9997C0.52209 66.6592 1.35542 66.908 2.02298 66.5534ZM85.6262 56.1851H54.0279C53.2695 56.1851 52.6543 55.5771 52.6543 54.828V40.5284C52.6543 40.0281 52.9327 39.5693 53.3787 39.3322L86.0494 22.0151C86.718 21.6604 86.969 20.8371 86.6108 20.1774C86.2527 19.5168 85.4194 19.269 84.7508 19.6227C84.7508 19.6227 58.5812 33.4943 52.0801 36.9407C50.7421 37.6492 49.9069 39.0281 49.9069 40.5283V54.8279C49.9069 57.0763 51.7523 58.8996 54.028 58.8996H85.6264C86.3847 58.8996 87 58.2915 87 57.5424C87 56.7932 86.3846 56.1851 85.6262 56.1851ZM33.4721 1.35715V27.564C33.4721 28.0643 33.1937 28.524 32.7477 28.7602L0.724497 45.7346C0.0559355 46.0893 -0.194883 46.9126 0.163101 47.5723C0.52209 48.2329 1.35542 48.4808 2.02312 48.127C2.02312 48.127 27.6231 34.5575 34.0464 31.1527C35.3844 30.4434 36.2196 29.0645 36.2196 27.5643V1.35715C36.2196 0.607891 35.6042 0 34.846 0C34.0878 0 33.4721 0.608033 33.4721 1.35715ZM84.7508 1.1962L54.6772 17.1362C54.2514 17.3624 53.7375 17.3507 53.3227 17.1054C52.9078 16.8601 52.6541 16.4177 52.6541 15.9409V1.35715C52.6541 0.607891 52.0387 0 51.2805 0C50.5223 0 49.9069 0.608033 49.9069 1.35715V15.9409C49.9069 17.3722 50.668 18.6996 51.9124 19.4343C53.156 20.17 54.6992 20.2052 55.9758 19.5284L86.0494 3.58759C86.718 3.23376 86.969 2.41042 86.6108 1.74987C86.2527 1.09031 85.4194 0.84151 84.7508 1.1962Z" fill="url(#paint0_linear_213_79)"/>
<path fill-rule="evenodd" clip-rule="evenodd" d="M51.0406 67.0474H59.2827C60.041 67.0474 60.6563 66.4394 60.6563 65.6903C60.6563 64.941 60.0409 64.3331 59.2827 64.3331H51.0406C50.2823 64.3331 49.667 64.9412 49.667 65.6903C49.667 66.4394 50.2824 67.0474 51.0406 67.0474ZM67.5248 67.0474H75.7669C76.5252 67.0474 77.1405 66.4394 77.1405 65.6903C77.1405 64.941 76.5251 64.3331 75.7669 64.3331H67.5248C66.7665 64.3331 66.1512 64.9412 66.1512 65.6903C66.1512 66.4394 66.7666 67.0474 67.5248 67.0474Z" fill="url(#paint1_linear_213_79)"/>
<path fill-rule="evenodd" clip-rule="evenodd" d="M41.6895 73.5005V76.6845C41.6895 77.4338 42.3049 78.0417 43.0631 78.0417C43.8215 78.0417 44.4367 77.4337 44.4367 76.6845V73.5005C44.4367 72.7512 43.8213 72.1432 43.0631 72.1432C42.3049 72.1433 41.6895 72.7513 41.6895 73.5005ZM41.6895 57.2139V65.3572C41.6895 66.1064 42.3049 66.7143 43.0631 66.7143C43.8215 66.7143 44.4367 66.1063 44.4367 65.3572V57.2139C44.4367 56.4647 43.8213 55.8567 43.0631 55.8567C42.3049 55.8567 41.6895 56.4647 41.6895 57.2139ZM41.6895 40.9273V49.0706C41.6895 49.8198 42.3049 50.4277 43.0631 50.4277C43.8215 50.4277 44.4367 49.8197 44.4367 49.0706V40.9273C44.4367 40.1781 43.8213 39.5701 43.0631 39.5701C42.3049 39.5701 41.6895 40.1781 41.6895 40.9273ZM41.6895 24.6407V32.784C41.6895 33.5331 42.3049 34.1411 43.0631 34.1411C43.8215 34.1411 44.4367 33.5331 44.4367 32.784V24.6407C44.4367 23.8914 43.8213 23.2835 43.0631 23.2835C42.3049 23.2835 41.6895 23.8916 41.6895 24.6407ZM41.6895 8.35407V16.4974C41.6895 17.2465 42.3049 17.8545 43.0631 17.8545C43.8215 17.8545 44.4367 17.2465 44.4367 16.4974V8.35407C44.4367 7.60495 43.8213 6.99692 43.0631 6.99692C42.3049 6.99692 41.6895 7.60495 41.6895 8.35407Z" fill="url(#paint2_linear_213_79)"/>
<path fill-rule="evenodd" clip-rule="evenodd" d="M19.792 44.8414C16.9192 46.3634 14.2607 47.773 12.5289 48.6905C11.8614 49.0452 11.6095 49.8685 11.9685 50.5282C12.3266 51.1887 13.16 51.4367 13.8285 51.0829C15.5594 50.1654 18.2189 48.7558 21.0908 47.2328C21.7593 46.879 22.0102 46.0557 21.6522 45.3951C21.2939 44.7357 20.4606 44.4868 19.792 44.8414ZM34.3184 37.1415C34.3184 37.1415 31.1132 38.8399 27.0553 40.9916C26.3867 41.3454 26.1357 42.1687 26.4939 42.8293C26.8529 43.4888 27.6862 43.7378 28.3539 43.3839C32.4127 41.2323 35.617 39.5339 35.617 39.5339C36.2845 39.1792 36.5364 38.3559 36.1784 37.6962C35.8193 37.0356 34.9859 36.7878 34.3184 37.1415ZM60.6006 23.2101C57.9566 24.6117 55.3897 25.9725 53.3375 27.0602C52.6699 27.4148 52.4179 28.2382 52.7761 28.8979C53.1351 29.5584 53.9684 29.8062 54.6361 29.4526C56.6893 28.3641 59.2554 27.0041 61.8992 25.6025C62.5678 25.2487 62.8186 24.4254 62.4606 23.7648C62.1015 23.1053 61.2681 22.8564 60.6006 23.2101ZM75.1259 15.5111C75.1259 15.5111 71.9783 17.1796 67.8637 19.3611C67.1951 19.7149 66.9443 20.5383 67.3023 21.1988C67.6604 21.8584 68.4937 22.1072 69.1623 21.7526C73.277 19.572 76.4254 17.9026 76.4254 17.9026C77.093 17.5488 77.3448 16.7254 76.9858 16.0659C76.6278 15.4053 75.7943 15.1564 75.1259 15.5111Z" fill="url(#paint3_linear_213_79)"/>
<defs>
<linearGradient id="paint0_linear_213_79" x1="33.6672" y1="164.63" x2="149.449" y2="111.85" gradientUnits="userSpaceOnUse">
<stop stop-color="#5D86D6"/>
<stop offset="1" stop-color="#986AD6"/>
</linearGradient>
<linearGradient id="paint1_linear_213_79" x1="33.6672" y1="164.63" x2="149.449" y2="111.85" gradientUnits="userSpaceOnUse">
<stop stop-color="#5D86D6"/>
<stop offset="1" stop-color="#986AD6"/>
</linearGradient>
<linearGradient id="paint2_linear_213_79" x1="33.6672" y1="164.63" x2="149.449" y2="111.85" gradientUnits="userSpaceOnUse">
<stop stop-color="#5D86D6"/>
<stop offset="1" stop-color="#986AD6"/>
</linearGradient>
<linearGradient id="paint3_linear_213_79" x1="33.6672" y1="164.63" x2="149.449" y2="111.85" gradientUnits="userSpaceOnUse">
<stop stop-color="#5D86D6"/>
<stop offset="1" stop-color="#986AD6"/>
</linearGradient>
</defs>
</svg>
