<svg width="86" height="85" viewBox="0 0 86 85" fill="none" xmlns="http://www.w3.org/2000/svg">
<path d="M22.7377 68.2141C20.9937 68.2141 19.5748 66.7953 19.5748 65.0512V58.9853C19.5748 57.2413 20.9937 55.8224 22.7377 55.8224H32.3923C34.1364 55.8224 35.5552 57.2413 35.5552 58.9853V65.0512C35.5552 66.7953 34.1364 68.2141 32.3923 68.2141H22.7377ZM22.0932 58.9853V65.0512C22.0932 65.4067 22.3823 65.6958 22.7377 65.6958H26.3059V58.3408H22.7377C22.3823 58.3409 22.0932 58.6299 22.0932 58.9853ZM33.0369 65.0512V58.9853C33.0369 58.6299 32.7478 58.3408 32.3923 58.3408H28.8243V65.6958H32.3923C32.7478 65.6958 33.0369 65.4068 33.0369 65.0512Z" fill="url(#paint0_linear_213_84)"/>
<path d="M49.051 34.9539H44.821V35.6756C44.821 36.3321 44.6274 36.9684 44.2609 37.5161C42.9344 39.4979 41.3226 41.2713 39.4704 42.7873C38.9324 43.2274 38.1389 43.1487 37.6984 42.6106C37.2578 42.0723 37.3371 41.279 37.8751 40.8385C39.5354 39.4796 40.9798 37.8903 42.168 36.1152C42.2559 35.9836 42.3026 35.8316 42.3026 35.6755V12.5582C42.3026 12.402 42.2548 12.2481 42.1646 12.1134C38.065 5.9933 31.2221 2.40983 23.8653 2.5208C20.1977 2.57755 16.5854 3.58188 13.4127 5.42667L9.24918 8.57161C5.00791 12.6554 2.65038 18.1179 2.60908 23.9612C2.56106 30.7924 5.80018 37.3176 11.2736 41.4167C11.8302 41.8334 11.9435 42.6227 11.5266 43.1794C11.2793 43.5096 10.9009 43.6837 10.5178 43.6837C10.2553 43.6837 9.99025 43.602 9.76393 43.4324C6.80435 41.2161 4.35783 38.3063 2.68866 35.0175C0.962064 31.6155 0.0635101 27.7863 0.0905403 23.9436C0.136871 17.3893 2.78957 11.2661 7.56019 6.70197C7.59545 6.66822 7.63272 6.63632 7.67167 6.60711L11.9542 3.37218C11.9934 3.34246 12.0343 3.31527 12.0766 3.29059C15.6381 1.20353 19.7009 0.0667364 23.826 0.00293775C32.0394 -0.124156 39.6798 3.87921 44.2569 10.7124C44.6257 11.2634 44.8206 11.9017 44.8206 12.5584V13.2803H49.0507C50.9994 13.2803 52.6184 14.7183 52.9026 16.5888H84.7037C85.3993 16.5888 85.9629 17.1524 85.9629 17.8479C85.9629 18.5435 85.3993 19.1071 84.7037 19.1071H52.9473V21.872H63.1137C63.8093 21.872 64.3729 22.4356 64.3729 23.1311C64.3729 23.8267 63.8093 24.3903 63.1137 24.3903H52.9473V29.4422H60.1083L62.3957 27.1547C62.8426 26.7077 63.4368 26.4614 64.069 26.4614C64.701 26.4614 65.2953 26.7076 65.7422 27.1547L68.6068 30.0194L71.0893 27.5368C72.012 26.6144 73.5129 26.6144 74.4357 27.5368L76.2454 29.3466H84.7037C85.3993 29.3466 85.9629 29.9103 85.9629 30.6058C85.9629 31.3014 85.3993 31.865 84.7037 31.865H75.7237C75.3898 31.865 75.0696 31.7324 74.8332 31.4963L72.7623 29.4252L70.2798 31.9078C69.8185 32.369 69.2129 32.5995 68.6068 32.5995C68.0011 32.5995 67.3948 32.3689 66.9334 31.9077L64.0689 29.0429L61.5201 31.5919C61.2839 31.8279 60.9637 31.9605 60.6296 31.9605H52.8403C52.432 33.6747 50.8886 34.9539 49.051 34.9539ZM50.4289 17.1762C50.4289 16.4167 49.8107 15.7985 49.051 15.7985H44.821V32.4355H49.051C49.8107 32.4355 50.4289 31.8173 50.4289 31.0576V17.1762Z" fill="url(#paint1_linear_213_84)"/>
<path d="M67.9073 24.3901C67.2117 24.3901 66.6481 23.8265 66.6481 23.1309C66.6481 22.4353 67.2117 21.8717 67.9073 21.8717H69.2802C69.9758 21.8717 70.5394 22.4353 70.5394 23.1309C70.5394 23.8265 69.9758 24.3901 69.2802 24.3901H67.9073Z" fill="url(#paint2_linear_213_84)"/>
<path d="M0.0241805 59.7401C0.113834 59.1115 0.442736 58.5553 0.950772 58.174L6.1455 54.2754C6.70172 53.858 7.49115 53.9708 7.90852 54.5267C8.3259 55.083 8.21324 55.8724 7.65719 56.2898L2.57529 60.1036L4.17227 62.2314L26.8091 45.242C27.257 44.9059 27.8728 44.9059 28.3208 45.242L50.9577 62.2313L52.5549 60.1034L28.3636 41.9476C27.8935 41.5944 27.2368 41.5944 26.7664 41.9476L11.949 53.0681C11.3928 53.486 10.6033 53.3728 10.1861 52.8169C9.76859 52.2607 9.88125 51.4714 10.4373 51.0541L13.9098 48.4481V36.1687C11.4786 35.5975 9.66232 33.4122 9.66232 30.8092V17.4244C9.66232 14.3881 12.1327 11.9178 15.169 11.9178C18.2053 11.9178 20.6755 14.3881 20.6755 17.4244V30.8092C20.6755 33.4122 18.8594 35.5977 16.4282 36.1687V46.5579L25.2547 39.9335C26.6148 38.9123 28.5148 38.9127 29.8753 39.9335L54.1792 58.1738C54.6871 58.5551 55.0161 59.1112 55.1058 59.7399C55.1955 60.3685 55.0348 60.9946 54.6537 61.5023L52.8873 63.8559C52.4207 64.4773 51.7062 64.8052 50.9829 64.805C50.4863 64.805 49.9856 64.6504 49.5588 64.3301L48.6035 63.613V67.5984C48.6035 68.294 48.0399 68.8576 47.3444 68.8576C46.6488 68.8576 46.0852 68.294 46.0852 67.5984V61.7229L27.5649 47.8233L9.04481 61.7231V76.8788H20.445C21.296 73.7442 24.1648 71.4315 27.5651 71.4315C30.9654 71.4315 33.8341 73.7442 34.685 76.8788H46.085V72.9647C46.085 72.2691 46.6486 71.7055 47.3442 71.7055C48.0398 71.7055 48.6034 72.2691 48.6034 72.9647V82.4816H50.2744C50.97 82.4816 51.5336 83.0452 51.5336 83.7408C51.5336 84.4364 50.97 85 50.2744 85H5.21622C4.52064 85 3.95703 84.4364 3.95703 83.7408C3.95703 83.0452 4.52064 82.4816 5.21622 82.4816H6.52644V63.6132L5.57114 64.3302C4.52249 65.117 3.0296 64.9044 2.24286 63.8558L0.476479 61.5024C0.0953677 60.9946 -0.0653048 60.3688 0.0241805 59.7401ZM18.1571 30.8092V17.4244C18.1571 15.7768 16.8167 14.4361 15.169 14.4361C13.5213 14.4361 12.1807 15.7766 12.1807 17.4244V30.8092C12.1807 32.0066 12.8904 33.039 13.9098 33.5153V32.3208C13.9098 31.6252 14.4734 31.0616 15.169 31.0616C15.8646 31.0616 16.4282 31.6252 16.4282 32.3208V33.5153C17.4474 33.039 18.1571 32.0066 18.1571 30.8092ZM46.0852 79.3973H34.9432V82.4818H46.0852V79.3973ZM32.4247 82.4818V78.8097C32.4247 76.13 30.2448 73.9501 27.5651 73.9501C24.8854 73.9501 22.7053 76.13 22.7053 78.8097V82.4818H32.4247ZM20.1869 82.4818V79.3973H9.04498V82.4818H20.1869Z" fill="url(#paint3_linear_213_84)"/>
<defs>
<linearGradient id="paint0_linear_213_84" x1="33.2659" y1="164.63" x2="148.136" y2="112.889" gradientUnits="userSpaceOnUse">
<stop stop-color="#5D86D6"/>
<stop offset="1" stop-color="#986AD6"/>
</linearGradient>
<linearGradient id="paint1_linear_213_84" x1="33.2659" y1="164.63" x2="148.136" y2="112.889" gradientUnits="userSpaceOnUse">
<stop stop-color="#5D86D6"/>
<stop offset="1" stop-color="#986AD6"/>
</linearGradient>
<linearGradient id="paint2_linear_213_84" x1="33.2659" y1="164.63" x2="148.136" y2="112.889" gradientUnits="userSpaceOnUse">
<stop stop-color="#5D86D6"/>
<stop offset="1" stop-color="#986AD6"/>
</linearGradient>
<linearGradient id="paint3_linear_213_84" x1="33.2659" y1="164.63" x2="148.136" y2="112.889" gradientUnits="userSpaceOnUse">
<stop stop-color="#5D86D6"/>
<stop offset="1" stop-color="#986AD6"/>
</linearGradient>
</defs>
</svg>
