<svg width="85" height="77" viewBox="0 0 85 77" fill="none" xmlns="http://www.w3.org/2000/svg">
<path d="M2.92237 23.4784H3.73369L11.3407 2.9979C12.0067 1.20477 13.7393 0 15.6521 0H69.3482C71.2609 0 72.9936 1.20477 73.6597 2.9979L81.2665 23.4784H82.0778C83.6891 23.4784 85 24.7892 85 26.4006V28.7484C85 30.3597 83.6891 31.6706 82.0778 31.6706H81.6458V58.9618C81.6458 59.6495 81.0885 60.207 80.4007 60.207C79.7129 60.207 79.1556 59.6495 79.1556 58.9618V31.6706H59.6056C58.5116 31.6706 57.483 31.2446 56.7092 30.4708L42.5001 16.2614L28.2907 30.4708C27.517 31.2444 26.4884 31.6704 25.3944 31.6704H5.84441V34.9715C5.84441 35.6591 5.28709 36.2166 4.59929 36.2166C3.91149 36.2166 3.35418 35.6591 3.35418 34.9715V31.6704H2.9222C1.31103 31.6704 0 30.3596 0 28.7482V26.4004C0.000166756 24.7892 1.31102 23.4784 2.92237 23.4784ZM71.3253 3.86484C71.0199 3.04256 70.2253 2.49023 69.3482 2.49023H15.6521C14.775 2.49023 13.9805 3.04273 13.675 3.86484L6.3901 23.4784H23.6977L39.6038 7.57246C40.3774 6.79883 41.4059 6.37267 42.5001 6.37267C43.5943 6.37267 44.6228 6.79866 45.3964 7.57246L61.3025 23.4784H78.6102L71.3253 3.86484ZM2.4904 28.7484C2.4904 28.9866 2.68413 29.1804 2.92237 29.1804H25.3944C25.8234 29.1804 26.2268 29.0133 26.5299 28.71L41.6197 13.6202C41.8533 13.3866 42.1699 13.2555 42.5003 13.2555C42.8306 13.2555 43.147 13.3866 43.3808 13.6202L58.4704 28.71C58.7737 29.0133 59.1772 29.1804 59.6061 29.1804H82.0778C82.316 29.1804 82.5098 28.9866 82.5098 28.7484V26.4006C82.5098 26.1624 82.316 25.9686 82.0778 25.9686H60.7867C60.4565 25.9686 60.1399 25.8375 59.9061 25.6039L43.6353 9.33322C43.3322 9.02991 42.9289 8.86289 42.4999 8.86289C42.0709 8.86289 41.6677 9.02991 41.3645 9.33322L25.0937 25.6039C24.8601 25.8375 24.5435 25.9686 24.2132 25.9686H2.92204C2.68381 25.9686 2.49006 26.1624 2.49006 26.4006L2.4904 28.7484Z" fill="url(#paint0_linear_213_82)"/>
<path d="M10.1334 66.2174C9.44561 66.2174 8.8883 65.6599 8.8883 64.9723V42.8356C8.8883 42.148 9.44561 41.5905 10.1334 41.5905H26.9038C27.5916 41.5905 28.1489 42.148 28.1489 42.8356V64.9723C28.1489 65.6599 27.5916 66.2174 26.9038 66.2174H10.1334ZM11.3785 58.3607H17.2736V52.4658H11.3785V58.3607ZM19.7638 58.3607H25.6587V52.4658H19.7638V58.3607ZM11.3785 63.7271H25.6587V60.8509H11.3785V63.7271ZM11.3785 49.9754H17.2736V44.0806H11.3785V49.9754ZM19.7638 44.0807V49.9756H25.6587V44.0807H19.7638Z" fill="url(#paint1_linear_213_82)"/>
<path d="M58.0964 66.2174C57.4086 66.2174 56.8513 65.6599 56.8513 64.9723V42.8356C56.8513 42.148 57.4086 41.5905 58.0964 41.5905H74.8668C75.5546 41.5905 76.1119 42.148 76.1119 42.8356V64.9723C76.1119 65.6599 75.5546 66.2174 74.8668 66.2174H58.0964ZM59.3415 58.3607H65.2364V52.4658H59.3415V58.3607ZM67.7266 58.3607H73.6216V52.4658H67.7266V58.3607ZM59.3415 63.7271H73.6216V60.8509H59.3415V63.7271ZM59.3415 49.9754H65.2364V44.0806H59.3415V49.9754ZM67.7266 44.0807V49.9756H73.6216V44.0807H67.7266Z" fill="url(#paint2_linear_213_82)"/>
<path d="M38.4752 46.9568H46.5249C47.2127 46.9568 47.7701 47.5143 47.7701 48.2019V53.5683C47.7701 54.256 47.2127 54.8134 46.5249 54.8134H38.4752C37.7874 54.8134 37.2301 54.256 37.2301 53.5683V48.2019C37.2301 47.5143 37.7874 46.9568 38.4752 46.9568ZM39.7203 52.3232H45.2798V49.447H39.7203V52.3232Z" fill="url(#paint3_linear_213_82)"/>
<path d="M35.8885 31.264C35.8885 27.6185 38.8544 24.6525 42.5001 24.6525C46.1458 24.6525 49.1116 27.6185 49.1116 31.264C49.1116 34.9095 46.1458 37.8757 42.5001 37.8757C38.8544 37.8757 35.8885 34.9097 35.8885 31.264ZM46.6214 31.264C46.6214 28.9916 44.7725 27.1427 42.5001 27.1427C40.2277 27.1427 38.3787 28.9916 38.3787 31.264C38.3787 33.5364 40.2277 35.3855 42.5001 35.3855C44.7725 35.3855 46.6214 33.5366 46.6214 31.264Z" fill="url(#paint4_linear_213_82)"/>
<path d="M1.24528 68.0872H3.35418V40.7959C3.35418 40.1083 3.91149 39.5508 4.59929 39.5508C5.28709 39.5508 5.84441 40.1083 5.84441 40.7959V68.0872H31.8636V42.8354C31.8636 42.1478 32.421 41.5903 33.1088 41.5903H51.8914C52.5792 41.5903 53.1365 42.1478 53.1365 42.8354V68.0872H79.1558V64.7861C79.1558 64.0985 79.7131 63.541 80.4009 63.541C81.0887 63.541 81.646 64.0985 81.646 64.7861V68.0872H83.7549C84.4427 68.0872 85 68.6446 85 69.3323V75.0342C85 75.7219 84.4427 76.2793 83.7549 76.2793H1.24528C0.557476 76.2793 0.000166756 75.7219 0.000166756 75.0342V69.3323C0.000166756 68.6446 0.557476 68.0872 1.24528 68.0872ZM50.6463 59.0059H48.8726C48.1848 59.0059 47.6275 58.4485 47.6275 57.7608C47.6275 57.0732 48.1848 56.5157 48.8726 56.5157H50.6463V44.0805H34.3537V68.0872H50.6463V59.0059ZM2.4904 73.7891H82.5098V70.5774H2.4904V73.7891Z" fill="url(#paint5_linear_213_82)"/>
<defs>
<linearGradient id="paint0_linear_213_82" x1="32.8932" y1="147.739" x2="142.519" y2="93.3326" gradientUnits="userSpaceOnUse">
<stop stop-color="#5D86D6"/>
<stop offset="1" stop-color="#986AD6"/>
</linearGradient>
<linearGradient id="paint1_linear_213_82" x1="32.8932" y1="147.739" x2="142.519" y2="93.3326" gradientUnits="userSpaceOnUse">
<stop stop-color="#5D86D6"/>
<stop offset="1" stop-color="#986AD6"/>
</linearGradient>
<linearGradient id="paint2_linear_213_82" x1="32.8932" y1="147.739" x2="142.519" y2="93.3326" gradientUnits="userSpaceOnUse">
<stop stop-color="#5D86D6"/>
<stop offset="1" stop-color="#986AD6"/>
</linearGradient>
<linearGradient id="paint3_linear_213_82" x1="32.8932" y1="147.739" x2="142.519" y2="93.3326" gradientUnits="userSpaceOnUse">
<stop stop-color="#5D86D6"/>
<stop offset="1" stop-color="#986AD6"/>
</linearGradient>
<linearGradient id="paint4_linear_213_82" x1="32.8932" y1="147.739" x2="142.519" y2="93.3326" gradientUnits="userSpaceOnUse">
<stop stop-color="#5D86D6"/>
<stop offset="1" stop-color="#986AD6"/>
</linearGradient>
<linearGradient id="paint5_linear_213_82" x1="32.8932" y1="147.739" x2="142.519" y2="93.3326" gradientUnits="userSpaceOnUse">
<stop stop-color="#5D86D6"/>
<stop offset="1" stop-color="#986AD6"/>
</linearGradient>
</defs>
</svg>
