<svg width="85" height="84" viewBox="0 0 85 84" fill="none" xmlns="http://www.w3.org/2000/svg">
<path d="M82.9172 74.1384H74.3712C73.4154 74.1384 72.635 73.9318 71.9158 73.489C69.325 71.89 67.2609 66.7694 66.0276 63.7099C65.8891 63.3666 65.7503 63.0236 65.6102 62.6809C63.581 57.7189 61.0557 51.5436 56.0389 48.3557C53.7929 46.9244 51.2397 46.1988 48.4507 46.1988H45.0933V32.0603C46.2863 32.0572 47.4064 31.5937 48.2471 30.7554C49.0922 29.9159 49.5582 28.7957 49.5593 27.6012C49.5605 26.4045 49.0951 25.2805 48.2473 24.4352L38.9672 15.2142C38.4801 14.7302 37.6917 14.7313 37.2064 15.2174C36.721 15.703 36.7223 16.4892 37.2096 16.9731L46.4882 26.1924C46.8634 26.5667 47.0699 27.0662 47.0692 27.5989C47.0688 28.1293 46.8629 28.6255 46.4882 28.998C45.7124 29.7714 44.4505 29.7714 43.6747 28.998L25.66 11.0393C25.1738 10.5544 24.3855 10.5544 23.8994 11.0393L5.88476 28.998C5.50989 29.3718 5.00986 29.5776 4.47645 29.5776C4.47578 29.5776 4.47512 29.5776 4.47446 29.5776C3.94254 29.5771 3.44499 29.3718 3.0698 28.9963C2.69643 28.6255 2.49073 28.1293 2.49024 27.5989C2.48974 27.0662 2.6961 26.5667 3.07146 26.1924L23.3747 5.947C23.7465 5.57486 24.2443 5.3696 24.776 5.3691H24.778C25.3114 5.3691 25.8116 5.57486 26.1865 5.94865L33.3771 13.119C33.8632 13.6038 34.6516 13.6038 35.1379 13.119C35.6241 12.6341 35.6241 11.8481 35.1379 11.3633L27.9472 4.19294C27.1019 3.35018 25.9766 2.88618 24.778 2.88618C24.7765 2.88618 24.775 2.88618 24.7737 2.88618C23.5759 2.88733 22.4525 3.35184 21.6122 4.19294L1.3107 24.4367C0.464348 25.2807 -0.00115994 26.4043 2.17059e-06 27.6012C0.00116428 28.7955 0.46717 29.9158 1.30887 30.7521C2.14941 31.5933 3.27034 32.0577 4.46599 32.0603V80.628H1.24512C0.557483 80.628 2.17059e-06 81.1839 2.17059e-06 81.8696C2.17059e-06 82.5552 0.557483 83.1111 1.24512 83.1111H82.969C84.0889 83.1111 85 82.2046 85 81.0905V76.2149C85 75.07 84.0657 74.1384 82.9172 74.1384ZM9.96725 80.6282H6.95622V55.1716H9.96725V80.6282ZM18.5275 80.6282H12.4575V55.1716H18.5275V80.6282ZM28.5417 80.6282H21.0177V76.6637H28.5417V80.6282ZM28.5417 74.1806H21.0177V69.5028H28.5417V74.1806ZM28.5417 67.0197H21.0177V62.3373H28.5417V67.0197ZM28.5417 59.8542H21.0177V55.1716H28.5417V59.8542ZM31.017 52.6885H18.5423V46.5346C18.5423 43.1051 21.3403 40.3149 24.7797 40.3149C28.219 40.3149 31.017 43.1051 31.017 46.5346V52.6885ZM37.0972 80.6282H31.032V55.1716H37.0972V80.6282ZM33.5073 52.6885V46.5346C33.5073 41.7359 29.5921 37.8318 24.7797 37.8318C19.9672 37.8318 16.0521 41.7357 16.0521 46.5346V52.6885H6.95622V31.3174C7.20159 31.1545 7.43252 30.9663 7.64552 30.7537L24.7797 13.6729L41.9136 30.7537C42.1268 30.9663 42.3577 31.1545 42.6031 31.3175V52.6885H33.5073ZM45.0933 80.6282V72.4095C45.0933 71.7238 44.5359 71.168 43.8482 71.168C43.1606 71.168 42.6031 71.7238 42.6031 72.4095V80.6282H39.5874V55.1716H42.6031V66.6799C42.6031 67.3655 43.1606 67.9214 43.8482 67.9214C44.5359 67.9214 45.0933 67.3655 45.0933 66.6799V55.1716H48.4507C49.5206 55.1716 50.3937 55.4096 51.1979 55.9201C53.8339 57.5957 55.7969 62.4272 57.0956 65.6242C57.2563 66.0194 57.4173 66.4143 57.5784 66.8095C59.5066 71.5469 61.883 77.3846 66.4403 80.6282H45.0933ZM82.5098 80.6282H74.3712C72.214 80.6282 70.2349 80.0827 68.4902 79.0076C64.1368 76.319 61.8785 70.7707 59.8858 65.8755C59.7251 65.481 59.5641 65.0865 59.4037 64.6919C57.9859 61.202 55.8433 55.9282 52.536 53.8259C51.3305 53.0604 49.9943 52.6883 48.4507 52.6883H45.0933V48.6816H48.4507C50.757 48.6816 52.8589 49.2757 54.6993 50.4486C59.0493 53.2127 61.3099 58.7408 63.3044 63.6182C63.4429 63.9569 63.5802 64.2961 63.717 64.6356C65.1515 68.1944 67.3192 73.5722 70.6061 75.6008C71.7211 76.2874 72.9527 76.6213 74.3712 76.6213H82.5098V80.6282Z" fill="url(#paint0_linear_213_86)"/>
<path d="M57.1002 24.8622H75.3359C80.6647 24.8622 85 20.5413 85 15.2303C85 9.91663 80.6647 5.59374 75.3359 5.59374C75.2726 5.59374 75.2091 5.5944 75.1455 5.59572C73.1976 2.17055 69.5083 0 65.5192 0C59.4172 0 54.4528 4.9483 54.4528 11.0304C54.4528 11.2555 54.4598 11.4821 54.4737 11.7088C51.9377 12.7485 50.2456 15.2101 50.2456 18.0269C50.2456 21.7959 53.3206 24.8622 57.1002 24.8622ZM56.1032 13.7879C56.7385 13.6401 57.1515 13.0284 57.0501 12.3858C56.9791 11.9354 56.9429 11.4793 56.9429 11.0304C56.9429 6.31747 60.7901 2.48309 65.5191 2.48309C68.8347 2.48309 71.8829 4.41791 73.2851 7.41202C73.5104 7.89291 74.0176 8.1778 74.5465 8.12119C74.8259 8.09123 75.0839 8.07666 75.3357 8.07666C79.2914 8.07666 82.5096 11.2856 82.5096 15.2301C82.5096 19.1719 79.2914 22.3789 75.3357 22.3789H57.1002C54.6937 22.3789 52.7359 20.4267 52.7359 18.0269C52.7359 15.9926 54.1206 14.2495 56.1032 13.7879Z" fill="url(#paint1_linear_213_86)"/>
<path d="M24.7797 23.0922C21.7266 23.0922 19.2427 25.569 19.2427 28.6135C19.2427 31.6579 21.7266 34.1347 24.7797 34.1347C27.8327 34.1347 30.3166 31.6579 30.3166 28.6135C30.3166 25.569 27.8327 23.0922 24.7797 23.0922ZM24.7797 31.6516C23.0997 31.6516 21.7329 30.2887 21.7329 28.6135C21.7329 26.9382 23.0997 25.5753 24.7797 25.5753C26.4596 25.5753 27.8264 26.9382 27.8264 28.6135C27.8264 30.2887 26.4596 31.6516 24.7797 31.6516Z" fill="url(#paint2_linear_213_86)"/>
<defs>
<linearGradient id="paint0_linear_213_86" x1="32.8932" y1="160.971" x2="146.044" y2="109.431" gradientUnits="userSpaceOnUse">
<stop stop-color="#5D86D6"/>
<stop offset="1" stop-color="#986AD6"/>
</linearGradient>
<linearGradient id="paint1_linear_213_86" x1="32.8932" y1="160.971" x2="146.044" y2="109.431" gradientUnits="userSpaceOnUse">
<stop stop-color="#5D86D6"/>
<stop offset="1" stop-color="#986AD6"/>
</linearGradient>
<linearGradient id="paint2_linear_213_86" x1="32.8932" y1="160.971" x2="146.044" y2="109.431" gradientUnits="userSpaceOnUse">
<stop stop-color="#5D86D6"/>
<stop offset="1" stop-color="#986AD6"/>
</linearGradient>
</defs>
</svg>
