<svg width="72" height="85" viewBox="0 0 72 85" fill="none" xmlns="http://www.w3.org/2000/svg">
<path fill-rule="evenodd" clip-rule="evenodd" d="M46.5 0C42.772 0 39.75 3.00441 39.75 6.71056C39.75 9.69309 41.7073 12.2212 44.4145 13.0947V26.9161C44.4145 27.7396 45.0861 28.4073 45.9145 28.4073H49.5314C50.7788 28.4073 51.97 27.8926 52.8211 26.9861L56.2661 23.3166C63.9032 29.2328 68.853 38.4138 68.997 48.7477H63.9746C63.4327 48.7477 62.9329 48.457 62.6672 47.9875L61.2826 45.5403C60.4855 44.1316 58.9862 43.26 57.3605 43.26C55.9441 43.26 54.4149 43.9229 53.5651 45.0494C53.2466 45.7212 52.5672 46.0038 52.0951 46.0038H49.3983C48.9768 46.0038 48.5748 45.8275 48.2905 45.518L42.83 39.5724C41.9774 38.6441 40.7713 38.1152 39.5068 38.1152C38.6784 38.1152 38.0068 38.7828 38.0068 39.6064C38.0068 40.43 38.6784 41.0977 39.5068 41.0977C39.9283 41.0977 40.3304 41.2739 40.6145 41.5834L46.0751 47.529C46.9277 48.4573 48.1338 48.9863 49.3983 48.9863H52.0951C53.5114 48.9863 55.0682 48.279 55.9651 46.8389C56.2484 46.4634 56.8884 46.2424 57.3605 46.2424C57.9024 46.2424 58.4022 46.533 58.6679 47.0025L60.0525 49.4497C60.8495 50.8583 62.3488 51.7301 63.9746 51.7301H68.904C67.6095 68.6718 53.3726 82.0175 36 82.0175C27.4499 82.0175 19.6594 78.7846 13.7974 73.4818L15.3103 72.1285C15.6176 71.8362 16.5163 70.9959 16.8408 70.7476C17.3092 70.3897 17.6045 70.2943 17.8139 70.2943H23.25C24.0784 70.2943 24.75 69.6269 24.75 68.803V54.2635C27.756 53.5854 30 50.9129 30 47.7193C30 44.0132 26.978 41.0088 23.25 41.0088C19.5221 41.0088 16.5 44.0132 16.5 47.7193C16.5 50.9129 18.7441 53.5854 21.75 54.2635V67.3119H17.8139C16.6349 67.3119 15.6926 67.8633 15.0125 68.383C14.569 68.7218 13.6823 69.5539 13.3034 69.9118L11.6689 71.3739C8.10795 67.5124 5.46495 62.8005 4.08353 57.58L6.23775 55.0101C6.52275 54.6701 6.94492 54.4735 7.39005 54.4735H13.3566C13.6528 54.4735 13.9423 54.5606 14.1887 54.7239L16.237 56.0815C16.6543 56.3581 16.9049 56.8237 16.9049 57.3223C16.9049 57.7178 16.7469 58.6953 16.4656 58.975L15.118 60.3148C14.5321 60.8971 14.5321 61.8413 15.118 62.4237C15.7037 63.006 16.6535 63.006 17.2393 62.4237L18.587 61.0839C19.4309 60.245 19.9049 58.5088 19.9049 57.3223C19.9049 55.8265 19.153 54.4297 17.9011 53.6L15.8528 52.2424C15.1136 51.7525 14.245 51.491 13.3566 51.491H7.39005C6.0546 51.491 4.78808 52.0808 3.93308 53.1007L3.32415 53.8272C3.13155 52.4672 3.02272 51.0803 3.00322 49.6721H6.77152C8.86515 49.6721 10.546 47.1961 10.546 45.79C10.546 44.3838 14.3374 42.2078 14.3374 42.2078C14.5301 42.0574 14.793 42.0072 14.9305 42.0072H16.095C18.5803 42.0072 20.595 40.0042 20.595 37.5335V29.079L19.5 23.343V16.2372C22.506 15.5591 24.75 12.8866 24.75 9.69302C24.75 5.98687 21.7279 2.98249 18 2.98249C14.272 2.98249 11.25 5.98687 11.25 9.69302C11.25 12.8866 13.494 15.5591 16.5 16.2372V23.4869L17.595 29.2227V37.5335C17.595 38.3571 16.9234 39.0247 16.095 39.0247H14.9305C14.5102 39.0247 14.0932 39.0832 13.6915 39.1976C13.061 39.3772 12.5968 39.7441 12.2938 40.0244L9.42772 42.6757C9.0144 43.0306 8.5941 43.475 8.26275 43.9616C7.9497 44.4211 7.59 45.1009 7.59 45.8759C7.59 46.3253 7.22355 46.6896 6.77152 46.6896H3.09592C3.46785 41.8222 4.90793 37.2517 7.1844 33.2089H13.095C13.9234 33.2089 14.595 32.5413 14.595 31.7177C14.595 30.8941 13.9234 30.2265 13.095 30.2265H9.08265C10.7717 27.8641 12.7676 25.7333 15.0132 23.8915C15.6522 23.3673 15.7428 22.4275 15.2156 21.7922C14.6884 21.1569 13.743 21.0668 13.104 21.5909C5.41463 27.8978 0.389175 37.163 0.0101252 48.3548C0.00337516 48.6392 0 48.9244 0 49.2105C0 68.9768 16.1177 85 36 85C55.8823 85 72 68.9768 72 49.2105C72 34.5624 63.1483 21.9728 50.4788 16.4338C49.7205 16.1022 48.8353 16.4447 48.5019 17.1986C48.1684 17.9525 48.5128 18.8324 49.2712 19.164C50.8478 19.8532 52.3597 20.6614 53.7955 21.5772L50.628 24.9511C50.3443 25.2533 49.9472 25.4249 49.5314 25.4249H47.4145V13.3599C50.7099 12.9162 53.25 10.1082 53.25 6.71056C53.25 3.00441 50.228 0 46.5 0ZM42.75 6.71056C42.75 4.65155 44.429 2.98249 46.5 2.98249C48.571 2.98249 50.25 4.65155 50.25 6.71056C50.25 8.7695 48.571 10.4386 46.5 10.4386C44.429 10.4386 42.75 8.7695 42.75 6.71056ZM18 5.96495C15.929 5.96495 14.25 7.634 14.25 9.69302C14.25 11.752 15.929 13.4211 18 13.4211C20.071 13.4211 21.75 11.752 21.75 9.69302C21.75 7.634 20.071 5.96495 18 5.96495ZM19.5 47.7193C19.5 45.6603 21.179 43.9912 23.25 43.9912C25.3211 43.9912 27 45.6603 27 47.7193C27 49.7783 25.3211 51.4474 23.25 51.4474C21.179 51.4474 19.5 49.7783 19.5 47.7193Z" fill="url(#paint0_linear_213_101)"/>
<path fill-rule="evenodd" clip-rule="evenodd" d="M34.875 20.1316C31.147 20.1316 28.125 23.136 28.125 26.8421C28.125 30.1041 30.4662 32.8226 33.5692 33.4272V48.5657C33.5692 48.9368 33.4302 49.2944 33.1791 49.569L31.121 51.8192C30.397 52.6109 30 53.6461 30 54.7146V58.5022C30 60.8203 31.7728 62.7665 34.9508 62.7665C35.2091 62.7665 35.4649 62.8533 35.678 63.0207L37.9474 64.8021C38.2489 65.0388 38.4375 65.4164 38.4375 65.8298V72.5341C38.4375 74.8522 40.2889 76.7983 42.6549 76.7983C45.0978 76.7983 46.136 76.2047 46.931 75.2019L50.8225 70.2965C51.4251 69.5367 51.75 68.5948 51.75 67.6282V57.6403C51.75 56.5217 51.3149 55.4414 50.5285 54.6388L44.6203 48.6096C43.8326 47.8057 42.7558 47.3467 41.6244 47.3467H40.2356C39.4072 47.3467 38.7356 48.0144 38.7356 48.838C38.7356 49.6616 39.4072 50.3292 40.2356 50.3292H41.6244C41.9344 50.3292 42.2399 50.4545 42.4715 50.6907L48.3797 56.72C48.6125 56.9576 48.75 57.2879 48.75 57.6403V67.6282C48.75 67.9321 48.6475 68.222 48.4669 68.4496L44.5753 73.355C44.3385 73.654 43.8308 73.8158 42.9179 73.8158C42.0049 73.8158 41.4375 73.279 41.4375 72.5341V65.8298C41.4375 64.5212 40.8423 63.2745 39.8065 62.4614L37.5371 60.68C36.8002 60.1014 35.891 59.784 34.9508 59.784H34.2174C33.5818 59.784 33 59.2471 33 58.5022V54.7146C33 54.3783 33.1254 54.061 33.3407 53.8257L35.3987 51.5753C36.1519 50.7518 36.5692 49.6788 36.5692 48.5657V33.3395C39.4771 32.5922 41.625 29.9665 41.625 26.8421C41.625 23.136 38.603 20.1316 34.875 20.1316ZM31.125 26.8421C31.125 24.7831 32.804 23.1141 34.875 23.1141C36.946 23.1141 38.625 24.7831 38.625 26.8421C38.625 28.9011 36.946 30.5702 34.875 30.5702C32.804 30.5702 31.125 28.9011 31.125 26.8421Z" fill="url(#paint1_linear_213_101)"/>
<path d="M23.352 18.8991C27.2453 17.2916 31.5164 16.4035 36 16.4035C37.8338 16.4035 39.6317 16.5521 41.3822 16.8375C42.1998 16.9707 42.9712 16.4199 43.1052 15.6072C43.2393 14.7945 42.6852 14.0276 41.8677 13.8943C39.9573 13.5829 37.9971 13.4211 36 13.4211C31.1146 13.4211 26.4529 14.3893 22.2013 16.1447C21.4363 16.4607 21.0737 17.3333 21.3914 18.0939C21.7091 18.8545 22.5869 19.215 23.352 18.8991Z" fill="url(#paint2_linear_213_101)"/>
<defs>
<linearGradient id="paint0_linear_213_101" x1="27.8625" y1="164.63" x2="129.175" y2="126.409" gradientUnits="userSpaceOnUse">
<stop stop-color="#5D86D6"/>
<stop offset="1" stop-color="#986AD6"/>
</linearGradient>
<linearGradient id="paint1_linear_213_101" x1="27.8625" y1="164.63" x2="129.175" y2="126.409" gradientUnits="userSpaceOnUse">
<stop stop-color="#5D86D6"/>
<stop offset="1" stop-color="#986AD6"/>
</linearGradient>
<linearGradient id="paint2_linear_213_101" x1="27.8625" y1="164.63" x2="129.175" y2="126.409" gradientUnits="userSpaceOnUse">
<stop stop-color="#5D86D6"/>
<stop offset="1" stop-color="#986AD6"/>
</linearGradient>
</defs>
</svg>
