<svg width="50" height="49" viewBox="0 0 50 49" fill="none" xmlns="http://www.w3.org/2000/svg">
<path d="M50 24.5C50 10.9903 38.7854 -4.90204e-07 25 -1.09278e-06C11.2146 -1.69537e-06 3.3343e-06 10.9903 2.74377e-06 24.5C2.15324e-06 38.0097 11.2146 49 25 49C38.7854 49 50 38.0097 50 24.5ZM23.5271 32.0685L13.1105 21.8601C12.7042 21.462 12.5 20.9394 12.5 20.4166C12.5 19.894 12.7042 19.3713 13.1105 18.9731C13.925 18.1749 15.2417 18.1749 16.0563 18.9731L25 27.7381L33.9438 18.9732C34.7583 18.175 36.075 18.175 36.8896 18.9732C37.7041 19.7715 37.7041 21.0619 36.8896 21.8601L26.4729 32.0685C25.6583 32.8668 24.3417 32.8668 23.5271 32.0685Z" fill="url(#paint0_linear_223_186)"/>
<defs>
<linearGradient id="paint0_linear_223_186" x1="-46.8409" y1="18.962" x2="-17.9649" y2="85.1202" gradientUnits="userSpaceOnUse">
<stop stop-color="#5D86D6"/>
<stop offset="1" stop-color="#986AD6"/>
</linearGradient>
</defs>
</svg>
