<svg width="25" height="25" viewBox="0 0 25 25" fill="none" xmlns="http://www.w3.org/2000/svg">
<path d="M1.38975 1.38881C2.15681 0.621745 3.40046 0.621745 4.16752 1.38881L23.6119 20.8332C24.379 21.6003 24.379 22.8439 23.6119 23.611C22.8449 24.3781 21.6012 24.3781 20.8342 23.611L1.38975 4.16658C0.622688 3.39952 0.622688 2.15587 1.38975 1.38881Z" fill="white"/>
<path d="M1.39018 23.611C0.623119 22.8439 0.623119 21.6003 1.39018 20.8332L20.8346 1.38877C21.6017 0.621711 22.8453 0.621711 23.6124 1.38877C24.3794 2.15583 24.3794 3.39949 23.6124 4.16655L4.16796 23.611C3.40089 24.378 2.15724 24.378 1.39018 23.611Z" fill="white"/>
</svg>
