<svg width="10" height="20" viewBox="0 0 10 20" fill="none" xmlns="http://www.w3.org/2000/svg">
<path d="M0.738021 11.3482H1.8839C1.98501 11.3482 2.08611 11.4493 2.08611 11.5504V18.7627C2.08611 19.1334 2.38943 19.4367 2.76016 19.4367H5.38894C5.75966 19.4367 6.06298 19.1334 6.06298 18.7627V11.5504C6.06298 11.4493 6.16409 11.3482 6.26519 11.3482H8.15252C8.48954 11.3482 8.79286 11.1123 8.82657 10.7752L9.2647 8.14647C9.3321 7.74204 8.99508 7.33761 8.59065 7.33761H6.3663C6.19779 7.33761 6.06298 7.2028 6.06298 7.03429V5.34918C6.06298 4.91105 6.2989 4.67513 6.73703 4.67513H8.72546C9.09618 4.67513 9.3995 4.37181 9.3995 4.00109V1.3049C9.3995 0.93418 9.09618 0.630859 8.72546 0.630859H6.3326C1.9513 0.630859 2.05241 4.1696 2.05241 4.67513V7.1354C2.05241 7.2365 1.9513 7.33761 1.8502 7.33761H0.704319C0.333594 7.33761 0.0302734 7.64093 0.0302734 8.01166V10.6404C0.0639757 11.0449 0.367296 11.3482 0.738021 11.3482Z" fill="white"/>
</svg>
