<svg width="60" height="43" viewBox="0 0 60 43" fill="none" xmlns="http://www.w3.org/2000/svg">
<path d="M7.15256 25.4039C6.63603 25.6447 6.40814 26.251 6.63833 26.7692L8.99767 31.8024C9.11359 32.053 9.32506 32.2481 9.58513 32.3444C9.69907 32.3855 9.81991 32.4067 9.94141 32.4067C10.0934 32.408 10.2435 32.3757 10.3818 32.3134L28.2077 24.0392L26.5931 40.8157C26.5619 41.1459 26.6899 41.4706 26.9385 41.6912C27.72 42.334 28.694 42.7002 29.7073 42.7331C29.9868 42.7328 30.2646 42.6979 30.5355 42.6294C31.9826 42.2541 33.1047 40.9726 33.8701 38.784L40.8851 18.1416L54.7784 11.7014C58.868 9.80513 60.9754 5.9601 59.5602 2.95893C58.757 1.39031 57.2186 0.323243 55.4601 0.114072C53.5063 -0.178963 51.5095 0.126472 49.735 0.989916L33.702 8.46102L16.4638 1.76068C14.293 0.948147 12.5736 0.969031 11.3679 1.83411C10.3561 2.65904 9.78051 3.89906 9.80513 5.19945C9.81564 5.52936 9.98278 5.83447 10.256 6.02308L21.8636 13.9527L15.216 17.0788L4.06916 14.2649C3.61239 14.1533 3.13691 14.358 2.90541 14.7652L0.12707 19.7354C-0.0170846 19.9987 -0.0397422 20.3113 0.0650081 20.5926C0.169102 20.8742 0.390423 21.0971 0.672494 21.2048L8.92477 24.5917L7.15256 25.4039ZM11.9543 4.67864C12.0161 4.23811 12.2403 3.83706 12.5838 3.55316C13.1818 3.12568 14.2723 3.18834 15.7296 3.73003L31.0809 9.68015L24.0761 12.9313L11.9543 4.67864ZM2.51761 19.7253L4.34203 16.5055L15.0689 19.1519C15.3001 19.21 15.5441 19.1881 15.7614 19.0899L50.6265 2.90705C52.0126 2.22765 53.5736 1.9803 55.1038 2.19828C56.177 2.2965 57.1329 2.91194 57.6625 3.84457C58.5425 5.72058 56.8127 8.46102 53.8869 9.81557L41.8075 15.443L42.5417 13.2853C42.7272 12.7303 42.4242 12.1305 41.8656 11.9464C41.3064 11.7624 40.7032 12.0636 40.518 12.6187L31.8881 38.1376C31.3742 39.5864 30.7345 40.4515 30.0216 40.6385C29.5799 40.723 29.1228 40.6368 28.7423 40.3993L30.8396 18.5162C30.8944 17.9409 30.4698 17.4303 29.8902 17.3758C29.3113 17.3206 28.7974 17.7432 28.7423 18.3185L28.4175 21.6633L10.4235 29.9995L8.94579 26.8733L11.9021 25.4982C12.2827 25.3314 12.528 24.9575 12.528 24.5447C12.528 24.1316 12.2827 23.7576 11.9021 23.5912L2.51761 19.7253Z" fill="white"/>
</svg>
