<svg width="22" height="22" viewBox="0 0 22 22" fill="none" xmlns="http://www.w3.org/2000/svg">
<path fill-rule="evenodd" clip-rule="evenodd" d="M8.82596 0.677136C10.1366 -0.225712 11.8634 -0.225712 13.174 0.677136L20.324 5.60249C21.3729 6.325 22 7.52205 22 8.80155V18.1238C22 20.2646 20.2763 22 18.15 22H3.85C1.7237 22 0 20.2646 0 18.1238V8.80155C0 7.52205 0.627132 6.325 1.67597 5.60249L8.82596 0.677136ZM8.25 17.0164C7.94625 17.0164 7.7 17.2643 7.7 17.5701C7.7 17.8759 7.94625 18.1238 8.25 18.1238H13.75C14.0537 18.1238 14.3 17.8759 14.3 17.5701C14.3 17.2643 14.0537 17.0164 13.75 17.0164H8.25Z" fill="#7A79D6"/>
</svg>
