<svg width="21" height="20" viewBox="0 0 21 20" fill="none" xmlns="http://www.w3.org/2000/svg">
<path d="M3.05404 0.630859C1.59191 0.630859 0.401461 1.75264 0.400391 3.1318C0.400391 4.51095 1.59084 5.63295 3.05404 5.63295C4.51671 5.63295 5.70655 4.51095 5.70655 3.1318C5.70655 1.75279 4.51664 0.630859 3.05404 0.630859Z" fill="white"/>
<path d="M5.04564 6.63783H1.06214C0.872654 6.63783 0.718954 6.78262 0.718954 6.96136V19.0459C0.718954 19.2245 0.872654 19.3693 1.06214 19.3693H5.04556C5.23512 19.3693 5.38882 19.2245 5.38882 19.0459V6.96136C5.3889 6.78255 5.2352 6.63783 5.04564 6.63783Z" fill="white"/>
<path d="M15.2293 6.49557C13.7715 6.49557 12.4904 6.91394 11.7087 7.59616V6.96136C11.7087 6.78262 11.555 6.63783 11.3654 6.63783H7.54429C7.35473 6.63783 7.20103 6.78262 7.20103 6.96136V19.0459C7.20103 19.2245 7.35473 19.3693 7.54429 19.3693H11.524C11.7135 19.3693 11.8672 19.2245 11.8672 19.0459V13.0671C11.8672 11.3516 12.202 10.2884 13.8727 10.2884C15.5188 10.2902 15.642 11.4304 15.642 13.1696V19.0459C15.642 19.2245 15.7957 19.3693 15.9853 19.3693H19.9668C20.1563 19.3693 20.31 19.2245 20.31 19.0459V12.417C20.3099 9.66006 19.7324 6.49557 15.2293 6.49557Z" fill="white"/>
</svg>
