<svg width="21" height="21" viewBox="0 0 21 21" fill="none" xmlns="http://www.w3.org/2000/svg">
<path d="M10.8998 6.98721C8.868 6.98721 7.21768 8.63754 7.21768 10.6693C7.21768 12.7011 8.868 14.3554 10.8998 14.3554C12.9316 14.3554 14.5859 12.7011 14.5859 10.6693C14.5859 8.63754 12.9316 6.98721 10.8998 6.98721Z" fill="white"/>
<path d="M16.4571 0.630859H5.3425C2.87304 0.630859 0.861328 2.64257 0.861328 5.11203V16.2266C0.861328 18.7001 2.87304 20.7078 5.3425 20.7078H16.4571C18.9306 20.7078 20.9383 18.7001 20.9383 16.2266V5.11203C20.9383 2.64257 18.9306 0.630859 16.4571 0.630859ZM10.8998 17.1742C7.31405 17.1742 4.39487 14.2551 4.39487 10.6693C4.39487 7.08358 7.31405 4.16841 10.8998 4.16841C14.4855 4.16841 17.4047 7.08358 17.4047 10.6693C17.4047 14.2551 14.4855 17.1742 10.8998 17.1742ZM17.5412 5.34894C16.7823 5.34894 16.164 4.73458 16.164 3.97567C16.164 3.21677 16.7823 2.5984 17.5412 2.5984C18.3001 2.5984 18.9185 3.21677 18.9185 3.97567C18.9185 4.73458 18.3001 5.34894 17.5412 5.34894Z" fill="white"/>
</svg>
