<svg width="295" height="295" viewBox="0 0 295 295" fill="none" xmlns="http://www.w3.org/2000/svg">
<path d="M280.977 118.478C267.358 107.671 260.414 90.908 262.403 73.633C263.703 62.333 259.837 51.24 251.796 43.201C243.752 35.158 232.66 31.292 221.362 32.594C204.081 34.58 187.325 27.64 176.518 14.021C169.449 5.11 158.872 0 147.499 0C136.125 0 125.548 5.11 118.478 14.02C107.671 27.638 90.914 34.58 73.637 32.595C62.337 31.29 51.244 35.158 43.202 43.2C35.159 51.24 31.293 62.333 32.593 73.635C34.582 90.907 27.639 107.67 14.017 118.479C5.11 125.549 0 136.126 0 147.498C0 158.87 5.109 169.447 14.019 176.519C27.639 187.327 34.582 204.089 32.593 221.364C31.293 232.664 35.159 243.757 43.2 251.796C51.244 259.839 62.345 263.707 73.634 262.403C90.908 260.415 107.671 267.357 118.478 280.976C125.547 289.886 136.124 294.997 147.499 294.997C158.872 294.997 169.449 289.887 176.519 280.977C187.327 267.359 204.084 260.418 221.36 262.402C232.661 263.701 243.753 259.839 251.795 251.797C259.838 243.757 263.704 232.664 262.404 221.363C260.415 204.09 267.359 187.326 280.98 176.518C289.887 169.448 294.997 158.871 294.997 147.498C294.997 136.125 289.886 125.549 280.977 118.478Z" fill="url(#paint0_linear_213_72)"/>
<defs>
<linearGradient id="paint0_linear_213_72" x1="114.158" y1="571.356" x2="509.842" y2="395.127" gradientUnits="userSpaceOnUse">
<stop stop-color="#5D86D6"/>
<stop offset="1" stop-color="#986AD6"/>
</linearGradient>
</defs>
</svg>
