<svg width="20" height="15" viewBox="0 0 20 15" fill="none" xmlns="http://www.w3.org/2000/svg">
<path fill-rule="evenodd" clip-rule="evenodd" d="M1.60628 0.862583L7.617 6.68921C8.92796 7.95702 11.0709 7.95811 12.383 6.68921L18.3937 0.862583C18.4542 0.803929 18.4454 0.707338 18.3752 0.659885C17.7621 0.245604 17.0162 0 16.2127 0H3.7873C2.98377 0 2.23786 0.245646 1.62479 0.659885C1.55457 0.707338 1.54575 0.803929 1.60628 0.862583ZM0 3.66966C0 3.05744 0.156656 2.47899 0.432597 1.97056C0.475748 1.89102 0.585124 1.87494 0.650698 1.93847L6.58533 7.68884C8.46464 9.51245 11.5342 9.51351 13.4147 7.68884L19.3493 1.93847C19.4149 1.87494 19.5243 1.89102 19.5674 1.97056C19.8433 2.47899 20 3.05748 20 3.66966V11.3303C20 13.3553 18.3 15 16.2127 15H3.7873C1.70005 15 0 13.3553 0 11.3303V3.66966Z" fill="white"/>
</svg>
