<svg width="27" height="21" viewBox="0 0 27 21" fill="none" xmlns="http://www.w3.org/2000/svg">
<path d="M24.5891 21C25.196 21 25.7219 20.8016 26.169 20.4099L18.5194 12.8374C18.3359 12.9675 18.158 13.094 17.99 13.2143C17.4175 13.6318 16.9529 13.9576 16.5961 14.1911C16.2394 14.425 15.7648 14.6635 15.1723 14.907C14.5795 15.1508 14.0272 15.2723 13.5148 15.2723H13.4848C12.9724 15.2723 12.4201 15.1509 11.8273 14.907C11.2345 14.6635 10.7599 14.425 10.4035 14.1911C10.0468 13.9576 9.58244 13.6319 9.00969 13.2143C8.85008 13.0985 8.67307 12.9714 8.4817 12.8354L0.830694 20.4099C1.27771 20.8016 1.80394 21 2.41081 21H24.5891Z" fill="url(#paint0_linear_223_591)"/>
<path d="M1.52193 8.06898C0.949519 7.69122 0.441916 7.25857 0 6.77124V18.2922L6.74227 11.6181C5.39343 10.6859 3.65552 9.50425 1.52193 8.06898Z" fill="url(#paint1_linear_223_591)"/>
<path d="M25.4933 8.06898C23.4411 9.44398 21.6969 10.6277 20.2604 11.6208L27 18.2925V6.77124C26.5679 7.24877 26.0657 7.68112 25.4933 8.06898Z" fill="url(#paint2_linear_223_591)"/>
<path d="M24.5891 0H2.41086C1.63712 0 1.04226 0.258637 0.625545 0.775376C0.208482 1.29236 0.00029412 1.9389 0.00029412 2.71428C0.00029412 3.34059 0.276571 4.01921 0.82888 4.75033C1.38119 5.48116 1.96889 6.05521 2.59169 6.47276C2.93312 6.71155 3.96273 7.42011 5.68054 8.59819C6.60785 9.2343 7.41428 9.78875 8.10728 10.2672C8.69797 10.6746 9.20739 11.0274 9.62798 11.3202C9.67626 11.3538 9.7522 11.4075 9.85298 11.4789C9.96156 11.5561 10.099 11.654 10.2685 11.7752C10.5949 12.0089 10.8661 12.1978 11.0821 12.3421C11.2978 12.4865 11.5591 12.6477 11.8656 12.8268C12.172 13.0056 12.4609 13.1401 12.7321 13.2295C13.0033 13.3189 13.2544 13.3637 13.4854 13.3637H13.5154C13.7463 13.3637 13.9974 13.3189 14.2687 13.2295C14.5398 13.1401 14.8285 13.0059 15.1351 12.8268C15.4414 12.6477 15.7023 12.4861 15.9187 12.3421C16.1347 12.1978 16.4059 12.0089 16.7324 11.7752C16.9015 11.654 17.0389 11.556 17.1475 11.4791C17.2483 11.4075 17.3242 11.3541 17.3728 11.3202C17.7005 11.0945 18.2111 10.7432 18.8975 10.2713C20.1467 9.4122 21.9863 8.14769 24.4241 6.47276C25.1573 5.96582 25.7699 5.35407 26.2622 4.63838C26.7536 3.92269 27 3.17196 27 2.38645C27 1.73015 26.7611 1.16857 26.2844 0.700843C25.8071 0.233695 25.242 0 24.5891 0Z" fill="url(#paint3_linear_223_591)"/>
<defs>
<linearGradient id="paint0_linear_223_591" x1="10.4484" y1="40.6732" x2="43.1311" y2="21.9582" gradientUnits="userSpaceOnUse">
<stop stop-color="#5D86D6"/>
<stop offset="1" stop-color="#986AD6"/>
</linearGradient>
<linearGradient id="paint1_linear_223_591" x1="10.4484" y1="40.6732" x2="43.1311" y2="21.9582" gradientUnits="userSpaceOnUse">
<stop stop-color="#5D86D6"/>
<stop offset="1" stop-color="#986AD6"/>
</linearGradient>
<linearGradient id="paint2_linear_223_591" x1="10.4484" y1="40.6732" x2="43.1311" y2="21.9582" gradientUnits="userSpaceOnUse">
<stop stop-color="#5D86D6"/>
<stop offset="1" stop-color="#986AD6"/>
</linearGradient>
<linearGradient id="paint3_linear_223_591" x1="10.4484" y1="40.6732" x2="43.1311" y2="21.9582" gradientUnits="userSpaceOnUse">
<stop stop-color="#5D86D6"/>
<stop offset="1" stop-color="#986AD6"/>
</linearGradient>
</defs>
</svg>
