<svg width="28" height="34" viewBox="0 0 28 34" fill="none" xmlns="http://www.w3.org/2000/svg">
<path d="M7.46729 21.5563C7.14529 21.5563 6.92829 21.5869 6.81629 21.6175V23.6201C6.94929 23.6507 7.11553 23.6592 7.34478 23.6592C8.18303 23.6592 8.69928 23.2478 8.69928 22.5525C8.69928 21.9303 8.25479 21.5563 7.46729 21.5563ZM13.5695 21.5767C13.2195 21.5767 12.992 21.6073 12.8573 21.6379V26.0749C12.992 26.1055 13.209 26.1055 13.405 26.1055C14.8347 26.1157 15.7658 25.3507 15.7658 23.7323C15.7763 22.3213 14.9275 21.5767 13.5695 21.5767Z" fill="#FAFAFA"/>
<path d="M17.5 0H3.5C2.57175 0 1.68151 0.358207 1.02513 0.995843C0.368743 1.63346 0 2.49827 0 3.4V30.6C0 31.5017 0.368743 32.3665 1.02513 33.0041C1.68151 33.6418 2.57175 34 3.5 34H24.5C25.4282 34 26.3184 33.6418 26.9749 33.0041C27.6313 32.3665 28 31.5017 28 30.6V10.2L17.5 0ZM9.6215 24.123C9.08075 24.616 8.28275 24.837 7.3535 24.837C7.17332 24.8389 6.99323 24.8287 6.8145 24.8064V27.2306H5.25V20.5394C5.95604 20.4371 6.66946 20.3905 7.38325 20.4C8.358 20.4 9.051 20.5802 9.51825 20.9423C9.96275 21.2857 10.2637 21.8484 10.2637 22.5114C10.262 23.1778 10.0345 23.7405 9.6215 24.123ZM16.2838 26.4265C15.5488 27.0198 14.4305 27.302 13.0638 27.302C12.2448 27.302 11.6655 27.251 11.2718 27.2V20.5411C11.9781 20.441 12.6912 20.3937 13.405 20.4C14.7297 20.4 15.5908 20.6312 16.2628 21.1242C16.989 21.6478 17.444 22.4825 17.444 23.681C17.444 24.9781 16.9558 25.874 16.2838 26.4265ZM22.75 21.709H20.069V23.2577H22.575V24.5055H20.069V27.2323H18.4835V20.451H22.75V21.709ZM15.75 11.9V3.4L24.5 11.9H15.75Z" fill="#FAFAFA"/>
</svg>
