<svg width="21" height="22" viewBox="0 0 21 22" fill="none" xmlns="http://www.w3.org/2000/svg">
<path d="M18.1647 9.23198C18.1906 6.13026 15.601 3.2868 12.3922 2.89361C12.3284 2.88589 12.2588 2.87413 12.1852 2.8617C12.0264 2.83485 11.8621 2.80725 11.6963 2.80725C11.0387 2.80725 10.8629 3.27854 10.8166 3.55962C10.7716 3.83291 10.8145 4.0624 10.944 4.24202C11.1618 4.54415 11.545 4.59778 11.8528 4.64076C11.943 4.65346 12.0281 4.66528 12.0994 4.68161C14.9824 5.33881 15.9532 6.37205 16.4276 9.28821C16.4392 9.35947 16.4444 9.44726 16.45 9.54039C16.4707 9.88897 16.5138 10.6142 17.2781 10.6142H17.2781C17.3418 10.6142 17.4101 10.6086 17.4813 10.5975C18.1931 10.4872 18.1708 9.82427 18.16 9.50575C18.157 9.41604 18.1541 9.33118 18.1616 9.27475C18.1636 9.26054 18.1646 9.24626 18.1647 9.23198Z" fill="#7A79D6"/>
<path d="M11.5097 1.75508C11.5951 1.76136 11.676 1.76737 11.7433 1.7779C16.4775 2.52063 18.6547 4.8089 19.2581 9.67635C19.2683 9.75909 19.2699 9.86 19.2716 9.96686C19.2776 10.3471 19.29 11.1383 20.1228 11.1546L20.1486 11.1549C20.4098 11.1549 20.6176 11.0746 20.7662 10.9159C21.0255 10.6393 21.0074 10.2283 20.9928 9.89806C20.9892 9.81703 20.9858 9.74071 20.9867 9.67389C21.0469 4.69576 16.8229 0.181602 11.9475 0.0137329C11.9273 0.0130496 11.908 0.0141428 11.8885 0.016944C11.879 0.0183788 11.8612 0.0201552 11.8308 0.0201552C11.7822 0.0201552 11.7224 0.0158509 11.659 0.0114782C11.5823 0.00614905 11.4953 0 11.4072 0C10.6308 0 10.4832 0.56298 10.4643 0.898581C10.4208 1.67418 11.1563 1.72877 11.5097 1.75508Z" fill="#7A79D6"/>
<path d="M19.0296 15.9672C18.9289 15.8888 18.8249 15.8076 18.7274 15.7276C18.2105 15.3032 17.6606 14.9121 17.1288 14.5338C17.0184 14.4553 16.9081 14.3768 16.7981 14.2981C16.1168 13.8099 15.5044 13.5727 14.9257 13.5727C14.1464 13.5727 13.4669 14.012 12.9061 14.8783C12.6576 15.2624 12.3561 15.4491 11.9846 15.4491C11.765 15.4491 11.5154 15.3851 11.2429 15.2589C9.04396 14.2417 7.47379 12.682 6.57589 10.6232C6.14185 9.62818 6.28255 8.97775 7.04644 8.44838C7.48022 8.14804 8.28764 7.58888 8.23045 6.51813C8.16568 5.30219 5.53581 1.64357 4.42775 1.22803C3.95861 1.05203 3.4657 1.05039 2.96005 1.22393C1.68624 1.66079 0.772134 2.42799 0.31632 3.44244C-0.124158 4.42267 -0.104267 5.57364 0.373849 6.77092C1.75602 10.2326 3.6993 13.2507 6.14988 15.7412C8.54856 18.1793 11.4968 20.1763 14.9125 21.6768C15.2204 21.8119 15.5433 21.8856 15.7791 21.9394C15.8595 21.9578 15.9289 21.9736 15.9794 21.9877C16.0072 21.9954 16.0359 21.9996 16.0646 21.9999L16.0916 22C16.0916 22 16.0916 22 16.0917 22C17.6983 22 19.6273 20.5024 20.2197 18.795C20.7387 17.2999 19.7911 16.561 19.0296 15.9672Z" fill="#7A79D6"/>
<path d="M12.2203 5.70932C11.9453 5.71643 11.3729 5.73091 11.172 6.32566C11.078 6.6036 11.0893 6.84492 11.2055 7.04292C11.376 7.33342 11.7027 7.42245 11.9999 7.4713C13.0775 7.64771 13.631 8.25565 13.7417 9.38434C13.7931 9.91063 14.1405 10.2781 14.5865 10.2781C14.6195 10.2781 14.6532 10.2762 14.6868 10.272C15.2232 10.2069 15.4833 9.8048 15.4598 9.07702C15.4684 8.31748 15.0787 7.45518 14.416 6.76833C13.751 6.07936 12.9495 5.69136 12.2203 5.70932Z" fill="#7A79D6"/>
</svg>
