<svg width="57" height="61" viewBox="0 0 57 61" fill="none" xmlns="http://www.w3.org/2000/svg">
<path d="M15.3237 49.6363L7.72164 45.9823C7.70741 45.9755 7.69306 45.969 7.67859 45.9629C7.19642 45.7621 6.64638 45.8684 6.30937 46.2273C5.97259 46.5862 5.91377 47.109 6.15586 47.5917L7.76152 50.794C7.76164 50.7942 7.76175 50.7946 7.76199 50.7948C7.76187 50.7952 7.76175 50.7954 7.76152 50.7957L6.15586 53.998C5.91377 54.4807 5.97259 55.0035 6.30937 55.3624C6.53275 55.6004 6.84988 55.7273 7.17877 55.7273C7.34593 55.7273 7.51602 55.6945 7.67847 55.6269C7.69306 55.6208 7.70741 55.6144 7.72164 55.6076L15.3231 51.9538C15.7529 51.7477 16.0199 51.3035 16.0199 50.7948C16.0199 50.2861 15.7528 49.8422 15.3237 49.6363ZM8.48342 53.2897L9.34012 51.5813C9.65432 50.9544 9.65432 50.6306 9.33977 50.0078L8.48354 48.3002L13.6738 50.795L8.48342 53.2897Z" fill="white"/>
<path d="M55.762 7.08387C55.6015 6.62555 55.0989 6.38344 54.6385 6.54328C54.1784 6.70312 53.9354 7.20422 54.0958 7.66254C54.7933 9.6552 54.7321 12.011 53.9237 14.2957C53.1669 16.4318 51.7867 18.2229 50.3254 20.1192C50.046 20.4817 49.7575 20.8562 49.4773 21.2289L47.5926 23.404C47.403 23.6223 47.1073 23.8826 46.7755 23.8826C46.4439 23.8826 46.1482 23.6223 45.9598 23.4054L44.0771 21.2289C43.7998 20.8607 43.5142 20.4907 43.238 20.1326C41.96 18.4761 40.744 16.8996 39.952 15.1036C39.9477 15.0929 39.9428 15.0826 39.9381 15.0723C39.8269 14.818 39.7239 14.5594 39.6307 14.2954C38.5346 11.2052 38.8323 8.01914 40.4271 5.77254C41.8225 3.80707 44.0776 2.72461 46.7772 2.72461C49.0121 2.72461 50.9318 3.45434 52.3288 4.8348C52.6746 5.17664 53.2332 5.17441 53.5764 4.82977C53.9195 4.48523 53.9173 3.92871 53.5713 3.58687C51.8368 1.87277 49.4875 0.966797 46.7772 0.966797C43.4887 0.966797 40.7219 2.31316 38.9865 4.75781C38.1374 5.95383 37.5893 7.35855 37.3514 8.86629H14.7536C7.42474 8.86629 1.46239 14.8114 1.46239 22.1191C1.46239 29.4268 7.42486 35.3719 14.7536 35.3719H37.4729C40.6805 35.3719 43.2899 37.9759 43.2899 41.1765C43.2899 44.3754 40.6804 46.9779 37.4729 46.9779H19.8807C18.3819 43.1554 14.648 40.4405 10.2898 40.4405C4.61595 40.4405 0 45.0445 0 50.7036C0 56.3627 4.61595 60.9668 10.2898 60.9668C14.648 60.9668 18.3818 58.2519 19.8807 54.4294H37.4729C44.7999 54.4294 50.7609 48.4842 50.7609 41.1765C50.7609 33.8688 44.7999 27.9237 37.4729 27.9237H14.7536C11.5443 27.9237 8.93336 25.3196 8.93336 22.119C8.93336 18.9184 11.5443 16.3144 14.7536 16.3144H20.7465C21.2338 16.3144 21.6288 15.9209 21.6288 15.4355C21.6288 14.9501 21.2338 14.5566 20.7465 14.5566H14.7536C10.5714 14.5566 7.16889 17.9491 7.16889 22.119C7.16889 26.2889 10.5714 29.6815 14.7536 29.6815H37.4729C43.827 29.6815 48.9964 34.8381 48.9964 41.1765C48.9964 47.515 43.827 52.6716 37.4729 52.6716H20.3921C20.5167 52.0344 20.5828 51.3766 20.5828 50.7036C20.5828 50.0306 20.5168 49.3729 20.3921 48.7357H37.4729C41.6534 48.7357 45.0544 45.3446 45.0544 41.1765C45.0544 37.0066 41.6533 33.6141 37.4729 33.6141H14.7536C8.39766 33.6141 3.22685 28.4575 3.22685 22.119C3.22685 15.7806 8.39766 10.624 14.7536 10.624H37.2163C37.2163 11.912 37.4272 13.2421 37.8565 14.5566H24.8141C24.3269 14.5566 23.9319 14.9501 23.9319 15.4355C23.9319 15.9209 24.3269 16.3144 24.8141 16.3144H38.5729C39.4475 18.1017 40.6586 19.674 41.8391 21.204C42.1182 21.5658 42.4069 21.9398 42.6834 22.3073C42.6954 22.3233 42.7079 22.3389 42.7209 22.3539L44.6244 24.5544C45.4042 25.4521 46.2247 25.6405 46.7755 25.6405C47.3265 25.6405 48.147 25.4521 48.9275 24.5536L50.833 22.3545C50.8464 22.339 50.8592 22.323 50.8716 22.3066C51.1511 21.9346 51.4428 21.5559 51.725 21.1897C53.206 19.2679 54.7374 17.2805 55.5877 14.8805C56.5288 12.2207 56.5907 9.45176 55.762 7.08387ZM10.2898 59.209C5.58888 59.209 1.76446 55.3935 1.76446 50.7036C1.76446 46.0138 5.58888 42.1983 10.2898 42.1983C14.9925 42.1983 18.8183 46.0138 18.8183 50.7036C18.8183 55.3935 14.9924 59.209 10.2898 59.209Z" fill="white"/>
<path d="M41.2313 10.6287C41.2313 13.6777 43.7191 16.1582 46.7772 16.1582C49.8335 16.1582 52.32 13.6777 52.32 10.6287C52.32 7.57969 49.8335 5.09918 46.7772 5.09918C43.7191 5.09918 41.2313 7.57969 41.2313 10.6287ZM50.5555 10.6287C50.5555 12.7084 48.8606 14.4004 46.7772 14.4004C44.6921 14.4004 42.9957 12.7084 42.9957 10.6287C42.9957 8.54895 44.6921 6.85699 46.7772 6.85699C48.8606 6.85699 50.5555 8.54895 50.5555 10.6287Z" fill="white"/>
</svg>
