<svg width="20" height="17" viewBox="0 0 20 17" fill="none" xmlns="http://www.w3.org/2000/svg">
<path d="M16.634 0.310867C14.0356 0.216395 12.2805 1.70608 11.3545 4.75648C11.8308 4.54334 12.2938 4.44809 12.7419 4.44809C13.6937 4.44809 14.1145 4.99227 14.0021 6.07362C13.9459 6.72867 13.5274 7.68119 12.7435 8.9343C11.9557 10.1874 11.367 10.8151 10.9751 10.8151C9.78677 10.8151 9.07238 5.12812 8.83035 3.5752C8.49384 1.41642 7.59675 0.406899 6.13908 0.548216C4.80087 0.675479 2.46563 3.08489 0.630859 4.71823L1.51233 5.8675C2.35164 5.27256 2.84118 4.97431 2.98093 4.97431C4.44172 4.97431 5.14909 9.94538 6.28352 13.6423C7.04476 15.6824 7.95746 16.7028 9.05755 16.7028C10.8252 16.7028 12.9785 15.0289 15.53 11.6794C17.9933 8.47288 19.269 5.94557 19.351 4.10221L19.3612 4.0944C19.4658 1.62332 18.564 0.358493 16.634 0.310867Z" fill="white"/>
</svg>
