<svg width="24" height="17" viewBox="0 0 24 17" fill="none" xmlns="http://www.w3.org/2000/svg">
<path d="M22.7742 2.34338C21.9528 1.36702 20.4364 0.96875 17.5404 0.96875H7.02772C4.06539 0.96875 2.52326 1.39271 1.70501 2.43219C0.907227 3.44569 0.907227 4.939 0.907227 7.00579V10.9451C0.907227 14.9491 1.85379 16.982 7.02772 16.982H17.5404C20.0519 16.982 21.4435 16.6306 22.3438 15.769C23.2671 14.8854 23.6611 13.4427 23.6611 10.9451V7.00579C23.6611 4.82619 23.5993 3.32407 22.7742 2.34338ZM15.5153 9.51928L10.7415 12.0142C10.6348 12.07 10.5181 12.0977 10.4015 12.0977C10.2696 12.0977 10.1379 12.0621 10.0212 11.9915C9.80163 11.8584 9.66753 11.6204 9.66753 11.3637V6.38982C9.66753 6.13351 9.80126 5.89569 10.0204 5.76254C10.2397 5.6294 10.5124 5.6203 10.7398 5.73847L15.5136 8.21732C15.7565 8.34342 15.909 8.59415 15.9094 8.86771C15.9096 9.14149 15.7578 9.39259 15.5153 9.51928Z" fill="white"/>
</svg>
